<!DOCTYPE svg PUBLIC "-//W3C//DTD SVG 20010904//EN" "http://www.w3.org/TR/2001/REC-SVG-20010904/DTD/svg10.dtd">
<svg version="1.0" xmlns="http://www.w3.org/2000/svg" width="128px" height="128px" viewBox="0 0 1280 1280" preserveAspectRatio="xMidYMid meet">
<g id="layer101" fill="#008a80" stroke="none">
 <path d="M403 1038 c-142 -143 -239 -249 -252 -275 -16 -32 -21 -61 -21 -123 0 -121 12 -138 279 -405 l231 -230 87 87 88 88 -207 207 c-125 126 -209 218 -213 234 -4 17 -1 38 8 55 21 39 234 250 244 241 4 -4 63 -62 131 -130 128 -128 140 -150 105 -189 -16 -18 -21 -15 -130 94 l-114 113 -74 -76 c-41 -42 -75 -82 -75 -90 0 -7 87 -100 192 -206 l193 -193 113 112 c146 146 157 165 157 288 0 74 -4 103 -19 130 -16 31 -472 500 -486 500 -3 0 -109 -105 -237 -232z"/>
 </g>
<g id="layer102" fill="#00afa1" stroke="none">
 <path d="M403 1038 c-142 -143 -239 -249 -252 -275 -16 -32 -21 -61 -21 -123 0 -121 12 -138 279 -405 l231 -230 87 87 88 88 -207 207 c-125 126 -209 218 -213 234 -4 17 -1 38 8 55 21 39 234 250 244 241 4 -4 63 -62 131 -130 91 -91 122 -128 122 -147 0 -19 -26 -51 -100 -125 l-100 -100 87 -87 88 -88 113 112 c146 146 157 165 157 288 0 74 -4 103 -19 130 -16 31 -472 500 -486 500 -3 0 -109 -105 -237 -232z"/>
 <path d="M562 726 c-40 -41 -72 -79 -72 -85 0 -19 77 -97 97 -98 10 -1 46 -5 80 -9 72 -8 142 8 169 38 17 18 14 22 -86 123 -58 58 -107 105 -111 105 -3 0 -38 -33 -77 -74z"/>
 </g>
<g id="layer103" fill="#005dff" stroke="none">
 <path d="M403 1038 c-142 -143 -239 -249 -252 -275 -16 -32 -21 -61 -21 -123 0 -121 12 -138 279 -405 l231 -230 87 87 88 88 -207 207 c-126 127 -209 218 -213 235 -4 14 -1 37 5 50 12 23 230 248 240 248 3 0 107 -101 230 -225 124 -124 227 -225 231 -225 3 0 15 19 25 42 27 59 27 208 0 258 -16 31 -472 500 -486 500 -3 0 -109 -105 -237 -232z"/>
 </g>
<g id="layer104" fill="#00abf9" stroke="none">
 <path d="M407 1042 l-227 -227 116 -115 c64 -63 111 -104 104 -92 -6 13 -9 36 -5 50 6 23 229 262 245 262 3 0 107 -101 230 -225 124 -124 227 -225 231 -225 3 0 15 19 25 42 27 59 27 208 0 258 -16 31 -472 500 -486 500 -3 0 -108 -102 -233 -228z"/>
 </g>
<g id="layer105" fill="#00f5f4" stroke="none">
 <path d="M728 1013 l-88 -88 228 -228 c125 -125 230 -227 233 -227 3 0 15 19 25 42 29 64 27 209 -3 263 -13 22 -87 104 -165 183 l-143 143 -87 -88z"/>
 </g>

</svg>